<svg xmlns="http://www.w3.org/2000/svg" viewBox="0 0 44 42" width="44" height="42">
	<style>
		tspan { white-space:pre }
		.shp0 { fill: #75bd80 } 
		.shp1 { fill: #00ffff } 
	</style>
	<g id="Layer">
		<g id="Layer">
			<g id="Layer">
				<g id="Layer">
					<path id="Layer" fill-rule="evenodd" class="shp0" d="M21.4 42C21.1 42 20.8 41.9 20.6 41.7L0.7 28.5C0.2 28.2 0 27.6 0 27.1L2.1 7.2C2.1 6.7 2.4 6.3 2.8 6.1C3.3 5.9 3.8 5.8 4.2 6L24.7 14C25.3 14.2 25.7 14.9 25.6 15.6L22.9 40.8C22.8 41.3 22.5 41.8 22 42C21.8 42 21.6 42 21.4 42ZM3.1 26.5L20.2 37.9L22.5 16.3L4.9 9.5L3.1 26.5Z" />
					<path id="Color Fill 3" fill-rule="evenodd" class="shp1" d="M21.4 42C21.1 42 20.8 41.9 20.6 41.7L0.7 28.5C0.2 28.2 0 27.6 0 27.1L2.1 7.2C2.1 6.7 2.4 6.3 2.8 6.1C3.3 5.9 3.8 5.8 4.2 6L24.7 14C25.3 14.2 25.7 14.9 25.6 15.6L22.9 40.8C22.8 41.3 22.5 41.8 22 42C21.8 42 21.6 42 21.4 42ZM3.1 26.5L20.2 37.9L22.5 16.3L4.9 9.5L3.1 26.5Z" />
					<path id="Layer" fill-rule="evenodd" class="shp0" d="M21.4 42C21.1 42 20.8 41.9 20.5 41.7C20.1 41.4 19.9 40.9 19.9 40.3L22.6 15.1C22.7 14.4 23.2 13.9 23.9 13.8L42.2 11C42.7 10.9 43.1 11.1 43.5 11.4C43.8 11.7 44 12.2 44 12.6L41.8 33.3C41.7 33.9 41.4 34.3 40.9 34.5L22 41.9C21.8 42 21.6 42 21.4 42ZM25.5 16.7L23.2 38.3L38.9 32.2L40.8 14.3L25.5 16.7Z" />
					<path id="Color Fill 3" fill-rule="evenodd" class="shp1" d="M21.4 42C21.1 42 20.8 41.9 20.5 41.7C20.1 41.4 19.9 40.9 19.9 40.3L22.6 15.1C22.7 14.4 23.2 13.9 23.9 13.8L42.2 11C42.7 10.9 43.1 11.1 43.5 11.4C43.8 11.7 44 12.2 44 12.6L41.8 33.3C41.7 33.9 41.4 34.3 40.9 34.5L22 41.9C21.8 42 21.6 42 21.4 42ZM25.5 16.7L23.2 38.3L38.9 32.2L40.8 14.3L25.5 16.7Z" />
					<path id="Layer" fill-rule="evenodd" class="shp0" d="M23.9 16.8C23.7 16.8 23.5 16.8 23.4 16.7L3.3 8.9C2.6 8.6 2.2 8 2.3 7.3C2.4 6.6 3 6 3.7 6L21.7 4.7C21.9 4.7 22.1 4.7 22.2 4.8L42.7 11C43.4 11.2 43.8 11.8 43.8 12.5C43.8 13.2 43.2 13.8 42.5 13.9L24.2 16.8C24.1 16.8 24 16.8 23.9 16.8ZM10.6 8.5L24.1 13.8L35.6 12L21.7 7.8L10.6 8.5Z" />
					<path id="Color Fill 1" fill-rule="evenodd" class="shp1" d="M23.9 16.8C23.7 16.8 23.5 16.8 23.4 16.7L3.3 8.9C2.6 8.6 2.2 8 2.3 7.3C2.4 6.6 3 6 3.7 6L21.7 4.7C21.9 4.7 22.1 4.7 22.2 4.8L42.7 11C43.4 11.2 43.8 11.8 43.8 12.5C43.8 13.2 43.2 13.8 42.5 13.9L24.2 16.8C24.1 16.8 24 16.8 23.9 16.8ZM10.6 8.5L24.1 13.8L35.6 12L21.7 7.8L10.6 8.5Z" />
				</g>
				<path id="Layer" class="shp0" d="M31.3 22.4C30.8 22.4 30.4 22.2 30 21.9C29.5 21.4 29.2 20.7 29.3 19.9C29.4 18.9 30.1 17.7 31.3 17.5L35.6 16.6C36.2 16.5 36.8 16.6 37.2 17C37.7 17.5 38 18.2 37.9 19C37.8 20.2 37 21.2 36 21.4L31.6 22.4C31.6 22.4 31.4 22.4 31.3 22.4Z" />
				<path id="Color Fill 2" class="shp1" d="M31.3 22.4C30.8 22.4 30.4 22.2 30 21.9C29.5 21.4 29.2 20.7 29.3 19.9C29.4 18.9 30.1 17.7 31.3 17.5L35.6 16.6C36.2 16.5 36.8 16.6 37.2 17C37.7 17.5 38 18.2 37.9 19C37.8 20.2 37 21.2 36 21.4L31.6 22.4C31.6 22.4 31.4 22.4 31.3 22.4Z" />
			</g>
		</g>
	</g>
</svg>